# File created by Blade
# Date/Time:  Tue Jan 27 17:09:01 2015
#---------------------------------------------------------
:version 1.10
:name HOM
:units
  mass 1.0
  length 1.000000
  angle deg
:documentation
     Acclaim Skeleton File
:root
   axis xyz
   order TX TY TZ RX RY RZ
   position 0.000000 0.000000 0.000000
   orientation 0 0 0
:bonedata
   begin
      id 1
      name Spine_dum
      direction 0.000000 1.000000 0.000000
      length 7.539951
      axis 0.0 0.0 0.0 xyz
   end
   begin
      id 2
      name LeftUpLeg_dum
      direction 1.000000 0.000000 0.000000
      length 3.345476
      axis 0.0 0.0 0.0 xyz
   end
   begin
      id 3
      name RightUpLeg_dum
      direction -1.000000 0.000000 0.000000
      length 3.345476
      axis 0.0 0.0 0.0 xyz
   end
   begin
      id 4
      name Spine
      direction 0.000000 1.000000 0.000000
      length 0.000000
      axis 0.0 0.0 0.0 xyz
      dof rx ry rz
   end
   begin
      id 5
      name Spine_dum1
      direction 0.000000 1.000000 0.000000
      length 15.093809
      axis 0.0 0.0 0.0 xyz
   end
   begin
      id 6
      name Spine_dum2
      direction 0.000000 1.000000 0.000000
      length 9.738928
      axis 0.0 0.0 0.0 xyz
   end
   begin
      id 7
      name Spine_dum3
      direction 0.000000 1.000000 0.000000
      length 9.738928
      axis 0.0 0.0 0.0 xyz
   end
   begin
      id 8
      name Head
      direction 0.000000 1.000000 0.000000
      length 4.527550
      axis 0.0 0.0 0.0 xyz
      dof rx ry rz
   end
   begin
      id 9
      name LeftShoulder
      direction 1.000000 0.000000 0.000000
      length 7.084015
      axis 0.0 0.0 -90.0 xyz
      dof rx ry rz
   end
   begin
      id 10
      name LeftArm
      direction 1.000000 0.000000 0.000000
      length 10.259319
      axis 0.0 0.0 -90.0 xyz
      dof rx ry rz
   end
   begin
      id 11
      name LeftForeArm
      direction 1.000000 0.000000 0.000000
      length 9.896984
      axis 0.0 0.0 -90.0 xyz
      dof ry rz rx
   end
   begin
      id 12
      name LeftHand
      direction 0.000000 0.000000 0.000000
      length 0.000000
      axis 0.0 0.0 -90.0 xyz
      dof rx ry rz
   end
   begin
      id 13
      name LeftHand_dum1
      direction 0.000000 0.000000 0.000000
      length 0.000000
      axis 0.0 0.0 -90.0 xyz
   end
   begin
      id 14
      name LeftHand_dum2
      direction 1.000000 0.000000 0.000000
      length 3.937000
      axis 0.0 0.0 -90.0 xyz
   end
   begin
      id 15
      name LeftHandThumb1
      direction 0.000000 0.000000 1.000000
      length 3.937000
      axis 0.0 0.0 -90.0 xyz
      dof rx rz ry
   end
   begin
      id 16
      name RightShoulder
      direction -1.000000 0.000000 0.000000
      length 7.084015
      axis 0.0 0.0 90.0 xyz
      dof rx ry rz
   end
   begin
      id 17
      name RightArm
      direction -1.000000 0.000000 0.000000
      length 10.259319
      axis 0.0 0.0 90.0 xyz
      dof rx ry rz
   end
   begin
      id 18
      name RightForeArm
      direction -1.000000 0.000000 0.000000
      length 9.896984
      axis 0.0 0.0 90.0 xyz
      dof ry rz rx
   end
   begin
      id 19
      name RightHand
      direction 0.000000 0.000000 0.000000
      length 0.000000
      axis 0.0 0.0 90.0 xyz
      dof rx ry rz
   end
   begin
      id 20
      name RightHand_dum1
      direction 0.000000 0.000000 0.000000
      length 0.000000
      axis 0.0 0.0 90.0 xyz
   end
   begin
      id 21
      name RightHand_dum2
      direction -1.000000 0.000000 0.000000
      length 3.937000
      axis 0.0 0.0 90.0 xyz
   end
   begin
      id 22
      name RightHandThumb1
      direction 0.000000 0.000000 1.000000
      length 3.937000
      axis 0.0 0.0 90.0 xyz
      dof rx rz ry
   end
   begin
      id 23
      name LeftUpLeg
      direction 0.000000 -1.000000 0.000000
      length 19.114733
      axis 0.0 0.0 0.0 xyz
      dof rx ry rz
   end
   begin
      id 24
      name LeftLeg
      direction 0.000000 -1.000000 0.000000
      length 16.045604
      axis 0.0 0.0 0.0 xyz
      dof rx ry rz
   end
   begin
      id 25
      name LeftFoot
      direction 0.000000 -0.258819 0.965926
      length 5.543155
      axis 15.0 0.0 0.0 xyz
      dof rx ry rz
   end
   begin
      id 26
      name LeftToeBase
      direction 0.000000 0.000000 1.000000
      length 2.952750
      axis 0.0 0.0 0.0 xyz
      dof rx ry rz
   end
   begin
      id 27
      name RightUpLeg
      direction 0.000000 -1.000000 0.000000
      length 19.114733
      axis 0.0 0.0 0.0 xyz
      dof rx ry rz
   end
   begin
      id 28
      name RightLeg
      direction 0.000000 -1.000000 0.000000
      length 16.045604
      axis 0.0 0.0 0.0 xyz
      dof rx ry rz
   end
   begin
      id 29
      name RightFoot
      direction 0.000000 -0.258819 0.965926
      length 5.543155
      axis 15.0 0.0 0.0 xyz
      dof rx ry rz
   end
   begin
      id 30
      name RightToeBase
      direction 0.000000 0.000000 1.000000
      length 2.952750
      axis 0.0 0.0 0.0 xyz
      dof rx ry rz
   end
:hierarchy
   begin
      root Spine_dum LeftUpLeg_dum RightUpLeg_dum
      Spine_dum Spine
      LeftUpLeg_dum LeftUpLeg
      RightUpLeg_dum RightUpLeg
      Spine Spine_dum1 Spine_dum2 Spine_dum3
      Spine_dum1 Head
      Spine_dum2 LeftShoulder
      Spine_dum3 RightShoulder
      LeftShoulder LeftArm
      LeftArm LeftForeArm
      LeftForeArm LeftHand
      LeftHand LeftHand_dum1 LeftHand_dum2
      LeftHand_dum1 LeftHandThumb1
      RightShoulder RightArm
      RightArm RightForeArm
      RightForeArm RightHand
      RightHand RightHand_dum1 RightHand_dum2
      RightHand_dum1 RightHandThumb1
      LeftUpLeg LeftLeg
      LeftLeg LeftFoot
      LeftFoot LeftToeBase
      RightUpLeg RightLeg
      RightLeg RightFoot
      RightFoot RightToeBase
   end

# File created by Blade
# Date/Time:  Tue Jan 27 17:08:52 2015
# Frame Rate: 120.000 fps
#------------------------------------------------------
:FULLY-SPECIFIED
:DEGREES
135
root -1.867988 36.859499 -0.670828 9.221098 8.254560 -0.932434
Spine -5.107551 5.789461 -0.150008
Head -2.319990 -5.261976 1.581679
LeftShoulder -8.001872 -5.584471 9.768382
LeftArm -11.971336 -30.138063 -47.911653
LeftForeArm 5.614226 -0.000000 95.112655
LeftHand -10.677241 -0.000000 20.959242
LeftHandThumb1 -26.253704 0.000000 33.147579
RightShoulder -7.448516 -22.234462 -1.620050
RightArm 37.026526 -36.896529 48.354856
RightForeArm 166.854303 -0.000000 35.114211
RightHand 0.460030 -0.000000 -1.917534
RightHandThumb1 -24.326973 -0.000000 -32.862282
LeftUpLeg -12.757678 10.617470 7.472895
LeftLeg 15.148670 -0.000000 -0.000000
LeftFoot -15.907391 -0.281047 -20.070398
LeftToeBase 14.601144 -0.000000 -0.000000
RightUpLeg -8.330370 -11.970314 2.393925
RightLeg 11.766032 -0.000000 -0.000000
RightFoot -17.517887 -5.123980 7.927063
RightToeBase 6.593630 -0.000000 -0.000000
136
root -1.844455 36.860241 -0.678061 9.240181 8.699472 -0.834454
Spine -5.032855 5.739262 -0.174004
Head -2.375958 -5.648019 1.534807
LeftShoulder -7.872001 -5.622234 9.773450
LeftArm -11.706751 -29.987567 -48.172033
LeftForeArm 5.767361 -0.000000 95.183906
LeftHand -10.755692 -0.000000 20.739177
LeftHandThumb1 -26.253704 0.000000 33.147579
RightShoulder -7.384578 -22.167162 -1.741411
RightArm 37.101773 -36.946886 47.988533
RightForeArm 167.441902 -0.000000 35.647213
RightHand 0.226913 -0.000000 -1.300449
RightHandThumb1 -24.326973 -0.000000 -32.862282
LeftUpLeg -13.057192 10.585925 7.281929
LeftLeg 15.500287 -0.000000 -0.000000
LeftFoot -15.925970 -0.345656 -20.064065
LeftToeBase 14.654992 -0.000000 -0.000000
RightUpLeg -8.309353 -12.133652 2.303080
RightLeg 11.770335 -0.000000 -0.000000
RightFoot -17.606369 -5.322637 8.077713
RightToeBase 6.624640 -0.000000 -0.000000
137
root -1.818936 36.861484 -0.689761 9.277879 9.139340 -0.752436
Spine -4.970766 5.666423 -0.164637
Head -2.446626 -5.971264 1.470906
LeftShoulder -7.772441 -5.627305 9.745892
LeftArm -11.416344 -29.855630 -48.424874
LeftForeArm 5.889832 -0.000000 95.263517
LeftHand -10.804868 -0.000000 20.539871
LeftHandThumb1 -26.253704 0.000000 33.147579
RightShoulder -7.306694 -22.121398 -1.852080
RightArm 37.203187 -36.912101 47.572720
RightForeArm 168.263131 -0.000000 36.157072
RightHand 0.100261 0.000000 -0.967164
RightHandThumb1 -24.326973 -0.000000 -32.862282
LeftUpLeg -13.387052 10.533302 7.097563
LeftLeg 15.873858 -0.000000 -0.000000
LeftFoot -15.952756 -0.370530 -20.028228
LeftToeBase 14.650314 -0.000000 -0.000000
RightUpLeg -8.328341 -12.280403 2.225934
RightLeg 11.804010 -0.000000 -0.000000
RightFoot -17.676570 -5.514867 8.231384
RightToeBase 6.611084 -0.000000 -0.000000
138
root -1.786460 36.863211 -0.699046 9.294150 9.573730 -0.665505
Spine -4.895083 5.568486 -0.134349
Head -2.479237 -6.262036 1.372832
LeftShoulder -7.712135 -5.621727 9.699048
LeftArm -11.106720 -29.687550 -48.682345
LeftForeArm 5.951975 -0.000000 95.346442
LeftHand -10.914697 -0.000000 20.544354
LeftHandThumb1 -26.253704 0.000000 33.147579
RightShoulder -7.169814 -22.089499 -1.982337
RightArm 37.258243 -36.777173 47.237083
RightForeArm 169.158500 -0.000000 36.554952
RightHand 0.023554 -0.000000 -0.723228
RightHandThumb1 -24.326973 -0.000000 -32.862282
LeftUpLeg -13.684505 10.522729 6.887666
LeftLeg 16.238264 -0.000000 -0.000000
LeftFoot -15.987233 -0.370912 -19.966633
LeftToeBase 14.596437 -0.000000 -0.000000
RightUpLeg -8.325078 -12.418924 2.129281
RightLeg 11.851668 -0.000000 -0.000000
RightFoot -17.755633 -5.717280 8.405261
RightToeBase 6.619748 -0.000000 -0.000000
139
root -1.750712 36.866640 -0.706662 9.284295 9.978622 -0.567107
Spine -4.770944 5.547758 -0.136543
Head -2.563866 -6.643248 1.329543
LeftShoulder -7.620511 -5.651993 9.640243
LeftArm -10.793714 -29.509525 -48.932227
LeftForeArm 6.028851 -0.000000 95.450821
LeftHand -11.042429 -0.000000 20.448329
LeftHandThumb1 -26.253704 0.000000 33.147579
RightShoulder -7.112420 -21.977901 -2.046659
RightArm 37.280803 -36.660959 46.889207
RightForeArm 170.208940 -0.000000 36.891389
RightHand -0.001095 0.000000 -0.602549
RightHandThumb1 -24.326973 -0.000000 -32.862282
LeftUpLeg -13.935762 10.541862 6.655833
LeftLeg 16.576435 -0.000000 -0.000000
LeftFoot -16.010485 -0.316069 -19.904771
LeftToeBase 14.579106 -0.000000 -0.000000
RightUpLeg -8.295531 -12.522460 2.005519
RightLeg 11.909677 -0.000000 -0.000000
RightFoot -17.819848 -5.927954 8.597530
RightToeBase 6.601111 -0.000000 -0.000000
140
root -1.714645 36.868904 -0.713192 9.271463 10.375284 -0.485541
Spine -4.656099 5.480341 -0.104227
Head -2.623230 -6.943804 1.244705
LeftShoulder -7.567862 -5.650277 9.549528
LeftArm -10.490645 -29.341614 -49.123098
LeftForeArm 6.075545 0.000000 95.539606
LeftHand -11.150951 -0.000000 20.350651
LeftHandThumb1 -26.253704 0.000000 33.147579
RightShoulder -6.996033 -21.901151 -2.140048
RightArm 37.322848 -36.466222 46.581625
RightForeArm 171.277393 -0.000000 37.132504
RightHand 0.112077 -0.000000 -0.537010
RightHandThumb1 -24.326973 -0.000000 -32.862282
LeftUpLeg -14.184824 10.622906 6.422290
LeftLeg 16.935735 -0.000000 -0.000000
LeftFoot -16.063974 -0.256635 -19.805279
LeftToeBase 14.471918 -0.000000 -0.000000
RightUpLeg -8.279302 -12.625185 1.895771
RightLeg 12.000738 -0.000000 -0.000000
RightFoot -17.891676 -6.129996 8.767640
RightToeBase 6.556387 -0.000000 -0.000000
141
root -1.676929 36.871232 -0.720907 9.277676 10.699719 -0.389907
Spine -4.565890 5.491133 -0.122598
Head -2.682853 -7.233981 1.202048
LeftShoulder -7.515186 -5.638801 9.503590
LeftArm -10.193140 -29.161716 -49.346601
LeftForeArm 6.136274 -0.000000 95.621651
LeftHand -11.171982 -0.000000 20.112383
LeftHandThumb1 -26.253704 0.000000 33.147579
RightShoulder -6.894533 -21.826500 -2.199901
RightArm 37.340865 -36.215588 46.327735
RightForeArm 172.422553 -0.000000 37.285989
RightHand 0.244666 0.000000 -0.596862
RightHandThumb1 -24.326973 -0.000000 -32.862282
LeftUpLeg -14.430677 10.825558 6.148240
LeftLeg 17.280498 -0.000000 -0.000000
LeftFoot -16.106288 -0.223936 -19.651559
LeftToeBase 14.431850 -0.000000 -0.000000
RightUpLeg -8.300328 -12.620007 1.760539
RightLeg 12.131590 -0.000000 -0.000000
RightFoot -17.992788 -6.344144 8.983868
RightToeBase 6.555733 -0.000000 -0.000000
142
root -1.631468 36.874346 -0.728770 9.232416 11.060860 -0.326242
Spine -4.411075 5.449780 -0.041004
Head -2.756203 -7.529223 1.075398
LeftShoulder -7.458316 -5.693293 9.392111
LeftArm -9.958373 -28.972025 -49.511900
LeftForeArm 6.233460 -0.000000 95.699809
LeftHand -11.268157 -0.000000 20.044168
LeftHandThumb1 -26.253704 0.000000 33.147579
RightShoulder -6.743970 -21.712393 -2.306701
RightArm 37.291856 -35.908615 46.126976
RightForeArm 173.562342 -0.000000 37.384924
RightHand 0.446954 -0.000000 -0.720436
RightHandThumb1 -24.326973 -0.000000 -32.862282
LeftUpLeg -14.624731 10.909078 5.909299
LeftLeg 17.610580 -0.000000 -0.000000
LeftFoot -16.213453 -0.134336 -19.547544
LeftToeBase 14.439612 -0.000000 -0.000000
RightUpLeg -8.271529 -12.684614 1.639984
RightLeg 12.269794 -0.000000 -0.000000
RightFoot -18.056090 -6.575290 9.212455
RightToeBase 6.535811 -0.000000 -0.000000
143
root -1.593130 36.875959 -0.746330 9.279230 11.239334 -0.249061
Spine -4.350797 5.548097 -0.078045
Head -2.829093 -7.794719 1.062610
LeftShoulder -7.448720 -5.715340 9.352854
LeftArm -9.673959 -28.771735 -49.664061
LeftForeArm 6.257012 -0.000000 95.745874
LeftHand -11.304823 0.000000 20.205348
LeftHandThumb1 -26.253704 0.000000 33.147579
RightShoulder -6.603243 -21.589629 -2.367341
RightArm 37.317791 -35.603798 45.936815
RightForeArm 174.681618 -0.000000 37.345383
RightHand 0.585400 -0.000000 -1.038306
RightHandThumb1 -24.326973 -0.000000 -32.862282
LeftUpLeg -14.892472 11.219081 5.609744
LeftLeg 17.945415 -0.000000 -0.000000
LeftFoot -16.308394 0.044108 -19.247286
LeftToeBase 14.369633 -0.000000 -0.000000
RightUpLeg -8.409440 -12.509906 1.508179
RightLeg 12.507530 -0.000000 -0.000000
RightFoot -18.157811 -6.818869 9.396235
RightToeBase 6.487655 -0.000000 -0.000000
144
root -1.542937 36.878548 -0.756803 9.253824 11.475685 -0.166715
Spine -4.218796 5.606013 -0.066719
Head -2.883695 -8.095165 1.030692
LeftShoulder -7.393131 -5.795498 9.289496
LeftArm -9.474134 -28.589894 -49.822287
LeftForeArm 6.367379 -0.000000 95.799349
LeftHand -11.359756 0.000000 20.151227
LeftHandThumb1 -26.253704 0.000000 33.147579
RightShoulder -6.502363 -21.489731 -2.421570
RightArm 37.378738 -35.258666 45.714955
RightForeArm 175.818553 -0.000000 37.247988
RightHand 0.849511 -0.000000 -1.313343
RightHandThumb1 -24.326973 -0.000000 -32.862282
LeftUpLeg -15.071271 11.376291 5.319581
LeftLeg 18.269432 -0.000000 -0.000000
LeftFoot -16.365401 0.236800 -18.877629
LeftToeBase 14.030263 -0.000000 -0.000000
RightUpLeg -8.451418 -12.471651 1.344539
RightLeg 12.740330 -0.000000 -0.000000
RightFoot -18.248627 -6.965993 9.628537
RightToeBase 6.447953 -0.000000 -0.000000
145
root -1.507587 36.879680 -0.788217 9.373700 11.326491 -0.073351
Spine -4.222967 6.022478 -0.256015
Head -2.970165 -8.333432 1.170238
LeftShoulder -7.319730 -5.828567 9.372386
LeftArm -9.240206 -28.448578 -50.017636
LeftForeArm 6.469503 0.000000 95.819991
LeftHand -11.453584 -0.000000 20.027034
LeftHandThumb1 -26.253704 0.000000 33.147579
RightShoulder -6.366161 -21.347567 -2.428649
RightArm 37.432735 -34.912559 45.593051
RightForeArm 177.014195 -0.000000 37.044672
RightHand 1.090923 -0.000000 -1.557808
RightHandThumb1 -24.326973 -0.000000 -32.862282
LeftUpLeg -15.359117 11.939680 4.960917
LeftLeg 18.582900 -0.000000 -0.000000
LeftFoot -16.491609 0.331599 -18.850296
LeftToeBase 14.181355 -0.000000 -0.000000
RightUpLeg -8.785940 -11.927741 1.168419
RightLeg 13.150419 -0.000000 -0.000000
RightFoot -18.385854 -7.254933 9.844646
RightToeBase 6.346126 -0.000000 -0.000000
146
root -1.462280 36.880769 -0.801062 9.334345 11.469641 -0.053279
Spine -4.078507 6.122756 -0.218666
Head -3.059070 -8.547417 1.201282
LeftShoulder -7.268380 -5.885486 9.340745
LeftArm -9.075868 -28.291753 -50.123194
LeftForeArm 6.507255 -0.000000 95.857356
LeftHand -11.544577 -0.000000 19.976640
LeftHandThumb1 -26.253704 0.000000 33.147579
RightShoulder -6.224650 -21.197964 -2.506305
RightArm 37.495644 -34.539040 45.466000
RightForeArm 177.974972 0.000000 36.773881
RightHand 1.355641 -0.000000 -1.793866
RightHandThumb1 -24.326973 -0.000000 -32.862282
LeftUpLeg -15.515329 12.128689 4.740936
LeftLeg 18.907610 -0.000000 -0.000000
LeftFoot -16.614538 0.480437 -18.633980
LeftToeBase 14.003529 -0.000000 -0.000000
RightUpLeg -8.875836 -11.845769 1.063976
RightLeg 13.461555 -0.000000 -0.000000
RightFoot -18.470107 -7.367667 10.053908
RightToeBase 6.308619 -0.000000 -0.000000
